<?xml version="1.0" encoding="UTF-8" standalone="no"?>
<svg
   xmlns:dc="http://purl.org/dc/elements/1.1/"
   xmlns:cc="http://creativecommons.org/ns#"
   xmlns:rdf="http://www.w3.org/1999/02/22-rdf-syntax-ns#"
   xmlns:svg="http://www.w3.org/2000/svg"
   xmlns="http://www.w3.org/2000/svg"
   xmlns:sodipodi="http://sodipodi.sourceforge.net/DTD/sodipodi-0.dtd"
   xmlns:inkscape="http://www.inkscape.org/namespaces/inkscape"
   width="13in"
   height="18in"
   version="1.1"
   style="shape-rendering:geometricPrecision; text-rendering:geometricPrecision; image-rendering:optimizeQuality; fill-rule:evenodd; clip-rule:evenodd"
   viewBox="0 0 13000 18000"
   enable-background="new 0 0 353.209 182.186"
   id="svg3893"
   sodipodi:docname="book-2948634.svg"
   inkscape:version="0.92.2 (5c3e80d, 2017-08-06)">
  <metadata
     id="metadata3897">
    <rdf:RDF>
      <cc:Work
         rdf:about="">
        <dc:format>image/svg+xml</dc:format>
        <dc:type
           rdf:resource="http://purl.org/dc/dcmitype/StillImage" />
      </cc:Work>
    </rdf:RDF>
  </metadata>
  <sodipodi:namedview
     pagecolor="#ffffff"
     bordercolor="#666666"
     borderopacity="1"
     objecttolerance="10"
     gridtolerance="10"
     guidetolerance="10"
     inkscape:pageopacity="0"
     inkscape:pageshadow="2"
     inkscape:window-width="1920"
     inkscape:window-height="1080"
     id="namedview3895"
     showgrid="false"
     inkscape:zoom="0.38301282"
     inkscape:cx="624"
     inkscape:cy="864"
     inkscape:window-x="0"
     inkscape:window-y="0"
     inkscape:window-maximized="0"
     inkscape:current-layer="svg3893" />
  <defs
     id="defs3820">
    <style
       type="text/css"
       id="style3818">  .fil1 {fill:#302F2F} .fil0 {fill:#FEFEFE}  </style>
  </defs>
  <g
     id="Layer_x0020_1"
     transform="matrix(0.95200468,0,0,0.93640999,974.02333,936.7206)">
    <metadata
       id="CorelCorpID_0Corel-Layer" />
    <g
       id="_2279374912">
      <path
         class="fil0"
         d="m -88,3779 c 72,132 208,292 293,433 56,94 148,221 216,329 23,36 47,73 70,107 48,70 93,149 140,223 l 417,669 c 23,38 48,74 70,111 201,331 420,675 627,1002 49,77 95,142 144,215 l 218,327 c 19,29 58,78 70,106 32,-6 225,-103 270,-125 l 780,-394 c 347,-176 694,-355 1062,-504 573,-231 1297,-450 1947,-358 151,21 333,60 476,111 33,12 115,49 140,52 -65,-60 -121,-125 -183,-186 l -90,-96 c -53,-51 -130,-136 -180,-192 l -135,-144 c -39,-44 -82,-100 -128,-147 -70,-70 -147,-173 -219,-245 -16,-17 -27,-34 -41,-52 -15,-19 -30,-30 -45,-47 L 4735,3714 c -9,-8 -14,-14 -22,-24 l -220,-244 c -18,-19 -29,-30 -46,-47 l -182,-186 c -37,-45 -70,-66 -94,-92 l -95,-91 c -17,-16 -27,-28 -44,-45 -99,-99 -277,-228 -437,-306 -599,-294 -1217,-229 -1814,12 -196,79 -450,193 -629,299 -38,23 -79,42 -120,66 -80,47 -152,91 -229,138 -77,48 -156,93 -229,143 -62,42 -640,417 -664,442 z"
         id="path3823"
         inkscape:connector-curvature="0"
         style="fill:#fefefe" />
      <path
         class="fil0"
         d="m 4062,2900 c 11,15 36,36 50,50 17,16 31,33 48,49 l 199,193 c 20,19 28,27 47,50 l 194,199 c 19,19 26,33 44,53 34,39 60,65 97,101 l 68,79 c 25,35 84,90 116,129 15,19 28,34 45,52 l 728,839 c 15,18 29,33 45,52 49,58 82,103 137,158 10,10 15,17 23,27 l 204,235 c 16,18 31,37 47,55 l 139,152 c 16,17 30,38 45,56 27,33 110,111 143,148 l 143,152 c 16,18 30,34 46,51 l 94,104 c 32,36 64,59 98,96 9,10 17,15 28,23 47,37 139,148 177,164 48,-139 46,-133 121,-259 54,-91 184,-221 277,-293 36,-28 70,-52 111,-79 691,-450 1852,-622 2679,-736 150,-21 1294,-166 1328,-188 -13,-21 -72,-59 -97,-77 -163,-111 -335,-248 -503,-362 l -202,-144 c -67,-50 -137,-94 -203,-143 l -608,-426 c -139,-91 -271,-191 -410,-283 -68,-45 -138,-94 -205,-141 -66,-47 -136,-91 -203,-139 -70,-50 -136,-94 -205,-142 -68,-47 -136,-96 -205,-141 -165,-109 -346,-243 -510,-352 -103,-68 -204,-145 -306,-214 -130,-87 -71,-60 -258,-31 -351,54 -636,48 -992,49 -228,1 -456,2 -684,3 -111,0 -235,-5 -344,2 -358,23 -781,115 -1078,302 -38,24 -70,46 -102,71 -97,74 -99,76 -186,160 -58,56 -207,239 -223,292 z"
         id="path3825"
         inkscape:connector-curvature="0"
         style="fill:#fefefe" />
      <path
         class="fil1"
         d="m 2646,8045 197,-115 c 67,-39 132,-77 202,-115 136,-75 270,-153 411,-227 464,-241 788,-414 1282,-622 439,-185 1037,-402 1523,-400 43,0 151,-2 182,15 -681,90 -1420,306 -2044,587 -77,35 -153,66 -227,102 l -1526,774 z m -467,246 3,-53 c 36,-16 82,-48 117,-70 41,-25 78,-47 119,-71 235,-140 481,-287 721,-419 740,-408 1817,-978 2660,-1131 112,-20 227,-35 345,-38 89,-2 178,2 266,19 l 59,12 c 25,9 10,2 17,12 -17,13 -5,0 -7,13 -178,-49 -504,-3 -682,33 -847,170 -1884,719 -2653,1139 -235,129 -490,278 -723,417 -76,45 -160,102 -241,137 z m 4,-80 2,-56 c 48,-36 917,-526 966,-554 324,-184 653,-358 993,-531 331,-168 693,-332 1068,-456 298,-98 650,-178 975,-161 175,9 187,23 336,48 -7,21 -13,14 -21,30 -179,-69 -491,-44 -687,-10 -706,125 -1544,528 -2179,860 -386,202 -840,460 -1213,687 -32,19 -221,138 -241,142 z m 2,-83 v -86 l 239,-137 c 832,-471 1913,-1089 2813,-1350 318,-92 652,-156 993,-134 85,5 167,16 250,33 13,3 25,5 38,8 l 30,8 c 9,6 0,-3 7,7 l -13,5 c -8,1 -12,0 -20,-3 -95,-24 -188,-39 -287,-46 -696,-48 -1483,309 -2073,603 -170,84 -338,171 -503,261 -83,46 -165,89 -249,135 -376,204 -731,415 -1099,623 -34,20 -91,58 -125,71 z m 2,-111 1,-60 c 8,-22 874,-496 963,-541 166,-84 327,-174 496,-256 776,-375 2023,-959 2947,-722 -18,23 -19,15 -64,5 -199,-45 -410,-58 -613,-41 -620,53 -1204,301 -1744,548 -175,80 -338,168 -509,251 -133,64 -365,191 -499,265 -295,162 -566,318 -854,481 -31,18 -94,59 -124,70 z m 2,-91 2,-62 c 126,-77 344,-199 478,-272 161,-87 323,-175 489,-263 788,-414 1878,-913 2789,-976 122,-9 246,-9 367,-1 58,4 114,10 172,19 27,4 53,8 79,13 l 59,12 c 27,8 11,1 18,11 -29,5 4,21 -67,5 -76,-18 -171,-32 -249,-38 -709,-61 -1519,228 -2137,506 -352,159 -691,322 -1020,500 l -492,268 c -44,24 -467,269 -491,277 z m 3,-85 c -3,-74 -8,-57 82,-108 296,-168 561,-313 866,-473 165,-87 340,-171 513,-252 700,-328 1563,-661 2353,-704 208,-11 518,1 706,58 -16,19 -36,26 -61,20 -946,-226 -2135,274 -2960,660 -425,199 -963,488 -1375,727 -25,15 -108,58 -122,72 z m 4,-87 -1,-66 488,-272 c 509,-267 1006,-526 1550,-730 373,-140 753,-269 1171,-349 343,-65 698,-100 1051,-63 54,6 297,37 323,60 -34,4 -12,21 -72,6 -783,-193 -1766,112 -2466,391 -467,187 -1096,493 -1553,748 -83,46 -166,92 -247,137 -83,46 -163,94 -243,139 z m 1,-90 -1,-54 c 27,-22 455,-257 494,-279 965,-528 2367,-1179 3490,-1140 251,9 441,46 662,113 l -12,7 c -27,11 -92,-12 -138,-21 -56,-12 -110,-20 -167,-28 -350,-47 -724,-19 -1064,44 -780,143 -1571,474 -2264,819 -288,143 -598,308 -877,469 -40,23 -83,50 -123,70 z m 2,-82 v -71 c 23,-22 466,-265 502,-284 1064,-570 2727,-1364 3927,-1054 73,19 241,72 290,106 l -5,2 c -35,14 -35,14 -64,4 -400,-141 -900,-136 -1308,-72 -441,69 -844,194 -1232,338 -683,254 -1353,602 -1984,959 -36,21 -91,57 -127,71 z m 3,-101 v -100 c 38,-24 92,-44 136,-66 47,-23 90,-45 137,-66 93,-43 178,-89 270,-135 l 402,-207 c 185,-96 498,-257 677,-336 l 279,-127 c 289,-128 578,-242 889,-327 675,-186 1241,-210 1886,64 26,11 93,41 118,59 l 14,12 c -56,33 -84,3 -144,-21 -774,-317 -1771,-67 -2501,205 -561,209 -1127,475 -1645,757 l -516,287 z M 7695,6246 c 15,-27 155,-111 179,-124 466,-270 1099,-405 1633,-475 364,-47 727,-81 1101,-103 392,-23 779,-27 1174,-39 6,16 26,73 24,94 -393,8 -795,-1 -1188,-3 -352,-2 -781,21 -1128,69 -463,63 -779,141 -1188,302 -73,29 -138,60 -208,92 -67,31 -132,64 -199,101 l -141,82 c -22,12 -37,3 -59,3 z m -46,-14 c 29,-57 287,-211 363,-251 131,-68 283,-129 435,-177 316,-101 658,-169 1006,-218 571,-80 1131,-111 1709,-129 98,-3 197,-5 296,-7 95,-2 215,3 306,-6 l 8,41 c -765,8 -1551,42 -2292,145 -562,78 -1262,224 -1735,549 -49,34 -66,59 -97,53 z m -52,-11 83,-77 c 227,-181 409,-288 695,-398 735,-283 1939,-336 2757,-368 138,-5 490,-25 604,-22 1,1 1,1 2,3 0,0 14,42 16,66 -1002,6 -2396,59 -3346,370 -247,81 -520,205 -716,369 -49,41 -60,65 -95,57 z m -43,-7 c 87,-88 252,-207 361,-274 131,-81 273,-154 426,-216 316,-128 646,-206 1009,-270 528,-94 1201,-140 1753,-167 109,-5 539,-29 615,-24 6,22 15,47 13,73 -792,29 -1602,51 -2372,156 -585,80 -1169,231 -1628,586 -30,23 -56,44 -86,70 l -63,56 c -9,10 -10,15 -29,11 z m -49,-4 c 44,-58 309,-241 371,-279 130,-82 279,-159 432,-223 313,-131 650,-226 1012,-296 718,-140 1493,-189 2230,-220 36,-2 123,-9 154,-4 6,23 6,32 10,54 -693,13 -1719,81 -2393,197 -577,99 -1177,275 -1630,632 l -132,109 c -18,17 -24,34 -54,31 z m -56,-3 c 13,-24 161,-136 181,-151 468,-356 1067,-556 1649,-686 630,-141 1426,-214 2090,-245 97,-5 227,-18 321,-13 8,16 9,32 9,51 -19,5 -273,12 -316,14 -706,35 -1401,82 -2094,219 -519,102 -1020,260 -1450,534 -142,90 -211,147 -330,248 -17,14 -26,30 -59,28 z m -70,-1 c 18,-23 64,-58 89,-79 32,-26 61,-50 97,-76 502,-370 1045,-574 1671,-723 659,-156 1430,-238 2120,-273 l 304,-14 c 5,0 7,0 12,1 13,2 15,5 15,46 -18,8 -569,31 -644,35 -208,13 -420,30 -626,52 -399,42 -794,97 -1173,182 -608,137 -1288,375 -1756,786 -14,13 -31,26 -46,39 -27,22 -15,28 -64,25 z m -64,6 c 23,-46 325,-264 392,-307 787,-504 1730,-722 2664,-841 348,-44 959,-98 1303,-101 1,22 4,33 4,56 -769,18 -1740,117 -2480,295 -620,149 -1189,368 -1681,746 -32,25 -66,52 -95,78 -58,51 -52,58 -106,73 z m -61,2 c 92,-102 267,-247 383,-328 459,-321 924,-503 1491,-658 708,-193 1603,-292 2359,-326 55,-2 124,-9 177,-6 1,1 1,2 1,4 1,8 5,12 4,40 -22,9 -289,16 -339,19 -110,6 -220,13 -331,22 -1205,96 -2711,351 -3640,1161 l -71,64 c -12,11 -13,10 -35,10 z m -73,8 c 11,-18 27,-34 40,-48 239,-267 448,-419 780,-605 315,-176 707,-312 1061,-412 787,-222 1728,-319 2597,-348 5,23 6,38 4,62 -19,7 -298,15 -345,18 -1242,73 -2863,293 -3835,1087 -36,29 -64,55 -98,83 -17,14 -31,28 -47,42 -19,16 -29,28 -47,46 -62,61 -60,75 -110,75 z m -44,5 c -1,-29 33,-114 45,-142 38,-88 91,-160 149,-231 l 197,-183 c 100,-79 233,-157 352,-214 690,-329 1670,-481 2445,-586 327,-44 680,-87 1005,-136 52,-8 295,-51 326,-48 l 1,101 c -238,12 -471,22 -707,40 -1006,75 -2109,267 -2987,737 -309,165 -558,363 -780,618 -14,16 -24,42 -48,42 z M 2107,8148 c 0,30 -4,64 -6,94 -15,-11 -66,-96 -81,-117 -28,-39 -52,-78 -79,-119 -263,-395 -537,-792 -786,-1195 -101,-164 -207,-317 -308,-482 -26,-42 -51,-83 -77,-121 L 616,5965 C 496,5767 355,5559 232,5361 l -467,-719 c -27,-41 -51,-81 -78,-120 -14,-19 -75,-98 -67,-118 15,13 624,933 634,948 107,161 210,316 317,476 l 1424,2136 c 18,27 112,155 113,183 z m 6,259 c 40,-8 220,-105 267,-130 l 261,-136 c 42,-21 84,-46 127,-67 43,-22 88,-46 129,-69 84,-48 175,-88 260,-137 166,-97 348,-180 520,-270 176,-92 351,-175 534,-259 171,-79 377,-166 553,-236 191,-77 383,-138 587,-203 284,-91 738,-195 1050,-233 173,-21 69,4 186,-114 204,-206 604,-280 915,-265 60,3 118,11 169,29 87,31 43,42 129,-11 313,-194 760,-371 1126,-458 216,-52 439,-91 669,-119 121,-15 238,-24 361,-33 63,-5 127,-4 190,-8 64,-4 124,-10 190,-10 527,0 1053,10 1579,-3 -5,-35 -59,-189 -73,-239 -22,-75 -51,-182 -59,-261 16,11 50,66 61,83 58,89 108,156 169,253 22,36 197,317 210,354 -73,5 -317,4 -404,4 -397,1 -795,7 -1191,27 -125,6 -249,20 -373,31 -124,11 -247,22 -368,37 -532,66 -1145,178 -1627,405 -48,22 -91,45 -128,74 -39,31 -74,62 -116,91 -334,229 -772,339 -1259,369 -127,8 -268,5 -397,6 -145,1 -210,18 -352,52 -219,54 -426,114 -635,181 -412,132 -803,278 -1182,443 -95,41 -184,85 -279,126 -93,40 -190,82 -279,126 -91,45 -185,83 -276,129 -90,46 -186,88 -275,135 -46,24 -89,44 -135,68 -131,69 -279,135 -408,204 -89,47 -178,88 -270,135 -46,23 -88,44 -135,68 l -140,69 -172,-262 C 1704,8211 1592,8027 1478,7857 L 1013,7127 C 772,6752 542,6359 305,5982 250,5894 192,5803 140,5712 41,5539 -84,5351 -189,5171 c -27,-47 -54,-86 -81,-134 -77,-137 -169,-269 -247,-407 -33,-57 -84,-105 -62,-145 14,-25 86,-87 120,-99 4,58 -30,27 53,141 29,39 56,81 84,123 55,85 106,173 163,251 52,72 108,170 162,251 81,120 161,254 241,375 131,199 272,428 402,632 54,85 107,166 160,253 105,172 216,329 320,503 27,46 54,81 81,126 26,44 56,81 82,125 100,165 219,339 326,501 55,83 109,168 165,249 l 334,493 z M -369,4336 264,5258 c 53,76 106,152 158,231 99,149 217,313 318,463 l 477,697 c 108,156 209,309 318,463 107,153 211,310 318,463 54,77 104,154 158,230 27,38 51,76 79,115 30,43 26,45 23,126 0,13 0,35 -5,45 -14,-13 -293,-436 -312,-465 L -350,4406 c -18,-27 -30,-31 -18,-72 z m 13,-75 314,450 c 104,151 209,303 315,454 211,302 417,603 628,905 261,374 527,753 784,1129 52,76 104,152 158,227 l 235,339 c 10,15 35,44 38,60 6,31 -5,66 2,94 -17,-12 -136,-192 -159,-225 -53,-77 -105,-151 -156,-228 -92,-141 -215,-313 -312,-456 -99,-146 -218,-311 -313,-456 C 1076,6399 967,6253 866,6098 768,5949 655,5792 554,5642 L -305,4390 c -57,-83 -63,-72 -49,-128 z m 22,-96 11,11 c 5,6 6,9 10,15 6,9 13,19 19,28 13,20 25,35 38,55 l 542,788 c 209,298 409,600 617,898 209,300 408,599 618,898 104,148 203,299 308,448 88,126 183,272 270,393 27,37 10,36 17,81 -14,-9 -603,-863 -627,-898 C 1387,6732 1284,6584 1178,6433 969,6136 762,5831 554,5533 448,5382 344,5232 241,5082 61,4820 -126,4559 -304,4297 c -12,-18 -29,-38 -40,-57 -9,-15 1,-55 10,-75 z m 25,-96 c 23,21 866,1263 919,1340 l 612,895 c 207,296 408,601 614,898 l 268,391 c 20,29 8,50 13,89 -21,-18 -611,-884 -622,-899 C 1391,6634 1291,6485 1187,6335 981,6036 777,5733 569,5437 310,5068 54,4681 -205,4311 c -26,-37 -51,-74 -77,-113 -53,-76 -51,-52 -27,-129 z m 38,-96 c 15,10 799,1189 901,1340 101,150 199,297 300,447 200,299 398,595 600,895 l 563,839 c 18,27 26,32 22,75 -16,-15 -133,-191 -154,-222 -147,-222 -309,-448 -460,-672 -51,-75 -102,-147 -153,-223 -49,-74 -101,-150 -153,-223 C 1091,6079 991,5931 888,5780 684,5481 479,5185 276,4885 174,4735 72,4585 -31,4436 c -12,-17 -264,-382 -266,-393 -2,-14 17,-57 26,-70 z m 55,-99 c 21,22 2058,3099 2302,3470 10,15 33,43 35,57 5,30 -7,62 -1,91 C 2099,7477 1267,6226 1209,6139 1108,5989 1006,5839 906,5687 806,5536 706,5387 605,5237 L -229,3993 c -13,-20 -34,-38 -25,-59 7,-16 27,-49 38,-60 z m 15,-21 c 11,-16 22,-26 40,-31 33,32 605,904 649,970 l 210,330 c 35,55 66,110 101,165 35,55 69,112 104,166 173,269 342,562 517,834 17,27 35,56 52,83 12,19 45,67 51,85 -34,-61 -164,-245 -216,-326 -35,-55 -71,-107 -108,-162 L 14,4180 c -44,-67 -185,-273 -215,-327 z m 111,-76 c 24,-25 602,-400 664,-442 73,-50 151,-95 229,-143 77,-48 149,-91 229,-138 41,-24 81,-43 120,-66 179,-106 433,-220 629,-299 597,-241 1215,-306 1814,-12 159,78 338,207 437,306 17,17 27,29 44,45 l 95,91 c 24,26 57,46 94,92 l 182,186 c 16,17 27,28 46,47 l 220,244 c 8,10 13,16 22,24 l 1096,1260 c 16,18 30,28 45,47 14,18 25,35 41,52 72,72 150,175 219,245 46,47 88,103 128,147 l 135,144 c 50,55 127,141 180,192 l 90,96 c 61,62 118,126 183,186 -25,-4 -106,-40 -140,-52 -142,-51 -325,-89 -476,-111 -650,-92 -1374,126 -1947,358 -368,149 -716,328 -1062,504 l -780,394 c -45,22 -238,119 -270,125 -12,-28 -51,-77 -70,-106 l -218,-327 c -48,-73 -95,-138 -144,-215 -208,-327 -426,-672 -627,-1002 -22,-37 -47,-73 -70,-111 L 631,4869 C 583,4796 539,4717 491,4646 468,4612 444,4575 421,4539 353,4432 261,4304 205,4210 120,4069 -16,3909 -88,3777 Z m 4151,-878 c 16,-52 165,-236 223,-292 87,-84 89,-86 186,-160 32,-25 65,-47 102,-71 297,-188 720,-279 1078,-302 109,-7 234,-2 344,-2 228,-1 456,-2 684,-3 356,-2 641,5 992,-49 187,-29 128,-57 258,31 102,69 203,145 306,214 164,109 344,243 510,352 69,45 137,94 205,141 69,47 135,92 205,142 67,47 137,92 203,139 67,47 136,97 205,141 139,92 271,192 410,283 l 608,426 c 66,49 136,93 203,143 l 202,144 c 168,115 340,251 503,362 26,17 84,56 97,77 -34,22 -1178,167 -1328,188 -828,114 -1989,287 -2679,736 -41,27 -75,51 -111,79 -93,72 -223,202 -277,293 -74,126 -73,120 -121,259 -38,-16 -130,-127 -177,-164 -11,-8 -18,-13 -28,-23 -34,-38 -66,-61 -98,-96 l -94,-104 c -17,-18 -30,-33 -46,-51 l -143,-152 c -34,-37 -116,-115 -143,-148 -15,-18 -30,-39 -45,-56 l -139,-152 c -15,-18 -31,-37 -47,-55 l -204,-235 c -9,-10 -14,-18 -23,-27 -55,-56 -89,-100 -137,-158 -16,-19 -29,-34 -45,-52 l -728,-839 c -17,-18 -30,-34 -45,-52 -32,-39 -91,-94 -116,-129 l -68,-79 c -38,-36 -63,-61 -97,-101 -18,-21 -25,-34 -44,-53 l -194,-199 c -19,-23 -27,-32 -47,-50 l -199,-193 c -17,-16 -31,-33 -48,-49 -15,-14 -40,-35 -50,-50 z M -672,4489 v 35 c 27,36 53,88 80,132 l 199,333 c 14,24 26,46 41,69 79,119 159,274 242,399 42,63 118,196 160,266 26,43 54,92 81,134 l 62,98 c 7,11 14,23 21,34 14,23 27,46 40,66 55,83 107,177 163,263 65,98 141,232 206,334 81,126 164,269 245,397 29,45 57,92 82,133 l 290,458 c 7,12 14,22 22,33 l 145,227 c 14,22 29,46 43,67 72,107 157,252 231,356 l 194,292 c 8,11 13,20 20,30 l 68,98 h 12 l 1238,-619 c 128,-60 299,-148 419,-201 l 426,-195 c 26,-11 46,-20 70,-31 27,-12 48,-20 74,-32 98,-43 191,-79 289,-121 136,-57 305,-120 447,-174 226,-87 545,-190 780,-254 108,-29 217,-58 329,-85 362,-87 245,-29 558,-46 360,-20 715,-51 1054,-183 130,-50 299,-131 408,-213 l 116,-91 c 22,-14 44,-26 65,-37 319,-164 674,-249 1025,-322 371,-76 719,-112 1095,-147 127,-12 263,-15 386,-27 173,-17 634,-24 805,-24 128,0 278,-9 402,-4 l 400,4 v -12 c -17,-20 -261,-434 -301,-497 -17,-26 -36,-54 -52,-79 -42,-66 -169,-254 -218,-314 -34,-42 -31,-34 -37,-98 -7,-83 -9,-166 -17,-249 -5,-51 5,-74 -32,-98 l -1161,-836 c -28,-22 -49,-34 -81,-55 -30,-20 -51,-37 -79,-56 l -471,-327 c -59,-41 -95,-63 -157,-109 -25,-19 -53,-34 -78,-53 l -79,-56 c -53,-33 -106,-75 -158,-108 l -394,-273 c -72,-52 -156,-103 -238,-163 -115,-84 -280,-185 -393,-269 -76,-57 -163,-111 -236,-166 -41,-31 -299,-201 -313,-223 h -22 c -50,28 -436,68 -528,73 -46,2 -99,2 -144,6 -46,4 -99,-1 -144,3 -76,7 -219,3 -294,-2 -92,-6 -205,0 -300,0 -296,0 -588,-4 -878,20 -373,30 -807,140 -1085,344 l -206,166 c -26,26 -50,50 -76,76 -15,15 -20,26 -34,42 l -66,82 c -43,54 -68,99 -91,129 l -134,-94 c -23,-15 -45,-31 -68,-46 -23,-15 -42,-28 -67,-43 -362,-211 -781,-290 -1197,-245 -279,30 -544,111 -803,211 -55,21 -105,45 -158,67 l -304,143 c -175,95 -368,203 -536,308 l -308,199 c -47,30 -91,56 -135,88 -21,16 -48,31 -69,44 -23,14 -45,29 -66,44 -23,17 -42,27 -69,45 -23,16 -44,29 -68,46 -11,8 -25,16 -36,23 -12,8 -20,15 -32,23 l -136,88 c -45,25 -85,67 -112,111 -62,100 -98,211 -122,329 -4,20 -11,77 -19,91 -9,17 -88,42 -136,88 -105,100 -59,74 -94,127 z"
         id="path3827"
         inkscape:connector-curvature="0"
         style="fill:#302f2f" />
      <path
         class="fil0"
         d="m 1780,7915 c -55,-81 -109,-166 -165,-249 -108,-163 -226,-337 -326,-501 -27,-44 -56,-81 -82,-125 -27,-45 -54,-80 -81,-126 C 1022,6740 911,6583 806,6411 752,6324 700,6243 646,6158 516,5954 375,5724 244,5526 164,5404 84,5271 3,5151 c -54,-81 -110,-179 -162,-251 -56,-78 -108,-166 -163,-251 -27,-42 -55,-84 -84,-123 -83,-114 -49,-83 -53,-141 -34,12 -106,74 -120,99 -22,40 29,88 62,145 78,138 170,270 247,407 27,48 53,88 81,134 105,180 229,368 329,541 52,91 109,182 165,270 237,377 467,770 708,1145 l 465,730 c 114,170 226,353 344,526 l 172,262 140,-69 c 47,-23 89,-44 135,-68 92,-47 181,-88 270,-135 129,-68 277,-135 408,-204 46,-24 89,-44 135,-68 89,-47 185,-89 275,-135 91,-46 185,-84 276,-129 89,-45 186,-86 279,-126 95,-41 185,-85 279,-126 379,-165 770,-311 1182,-443 209,-67 415,-127 635,-181 142,-35 208,-52 352,-52 129,-1 271,2 397,-6 487,-30 924,-140 1259,-369 42,-29 77,-60 116,-91 38,-30 81,-52 128,-74 483,-227 1095,-339 1627,-405 121,-15 244,-26 368,-37 124,-11 248,-25 373,-31 396,-21 794,-26 1191,-27 87,0 331,1 404,-4 -13,-36 -187,-318 -210,-354 -61,-98 -111,-164 -169,-253 -11,-17 -45,-72 -61,-83 8,79 37,186 59,261 15,50 69,203 73,239 -526,14 -1053,3 -1579,3 -67,0 -126,6 -190,10 -63,4 -127,4 -190,8 -123,9 -240,18 -361,33 -230,29 -453,67 -669,119 -365,87 -813,264 -1126,458 -86,53 -42,43 -129,11 -51,-18 -109,-26 -169,-29 -312,-15 -711,59 -915,265 -117,118 -14,93 -186,114 -312,38 -765,142 -1050,233 -204,65 -396,127 -587,203 -177,71 -382,157 -553,236 -183,85 -359,168 -534,259 -171,89 -354,173 -520,270 -84,49 -176,90 -260,137 -41,23 -86,47 -129,69 -43,22 -85,46 -127,67 l -261,136 c -47,25 -227,122 -267,130 l -334,-493 z"
         id="path3829"
         inkscape:connector-curvature="0"
         style="fill:#fefefe" />
      <path
         class="fil0"
         d="m 2719,7194 c 518,-282 1084,-548 1645,-757 731,-272 1727,-522 2501,-205 61,25 88,54 144,21 l -14,-12 c -26,-18 -92,-48 -118,-59 -645,-273 -1212,-250 -1886,-64 -310,86 -600,199 -889,327 l -279,127 c -179,79 -492,240 -677,336 l -402,207 c -93,46 -177,92 -270,135 -46,21 -90,43 -137,66 -43,22 -98,42 -136,66 v 100 l 516,-287 z"
         id="path3831"
         inkscape:connector-curvature="0"
         style="fill:#fefefe" />
      <path
         class="fil0"
         d="m 7138,6227 c 24,-1 34,-27 48,-42 221,-255 470,-453 780,-618 878,-470 1981,-662 2987,-737 236,-18 469,-27 707,-40 l -1,-101 c -31,-3 -274,40 -326,48 -324,48 -678,91 -1005,136 -775,105 -1756,257 -2445,586 -119,57 -252,134 -352,214 l -197,183 c -58,70 -112,142 -149,231 -12,28 -46,113 -45,142 z"
         id="path3833"
         inkscape:connector-curvature="0"
         style="fill:#fefefe" />
      <path
         class="fil0"
         d="m 2200,7582 c 36,-15 90,-51 127,-71 630,-357 1300,-705 1984,-959 387,-144 790,-269 1232,-338 409,-64 909,-69 1308,72 29,10 29,10 64,-4 l 5,-2 c -50,-34 -217,-87 -290,-106 -1199,-309 -2863,485 -3927,1054 -36,19 -479,262 -502,284 v 71 z"
         id="path3835"
         inkscape:connector-curvature="0"
         style="fill:#fefefe" />
      <path
         class="fil0"
         d="m -215,3875 c -11,11 -32,44 -38,60 -9,22 11,39 25,59 l 834,1244 c 101,150 201,299 301,450 101,152 203,303 303,452 58,86 890,1338 911,1353 -6,-29 6,-61 1,-91 -2,-14 -26,-43 -35,-57 C 1843,6974 -194,3896 -215,3875 Z"
         id="path3837"
         inkscape:connector-curvature="0"
         style="fill:#fefefe" />
      <path
         class="fil0"
         d="m 7183,6223 c 50,1 48,-14 110,-75 19,-18 28,-29 47,-46 16,-14 30,-28 47,-42 34,-28 62,-54 98,-83 973,-793 2593,-1013 3835,-1087 47,-3 327,-11 345,-18 2,-24 1,-39 -4,-62 -869,29 -1809,126 -2597,348 -355,100 -746,235 -1061,412 -332,186 -541,337 -780,605 -13,14 -28,30 -40,48 z"
         id="path3839"
         inkscape:connector-curvature="0"
         style="fill:#fefefe" />
      <path
         class="fil0"
         d="m 2198,7664 c 40,-20 83,-47 123,-70 279,-161 589,-326 877,-469 693,-344 1485,-676 2264,-819 340,-62 714,-90 1064,-44 57,8 110,16 167,28 47,10 111,33 138,21 l 12,-7 c -220,-67 -411,-104 -662,-113 -1123,-39 -2525,612 -3490,1140 -39,21 -467,256 -494,279 z"
         id="path3841"
         inkscape:connector-curvature="0"
         style="fill:#fefefe" />
      <path
         class="fil0"
         d="m 7598,6221 c 35,8 46,-16 95,-57 197,-164 470,-288 716,-369 950,-311 2344,-364 3346,-370 -2,-25 -16,-66 -16,-66 0,-2 -1,-2 -2,-3 -114,-3 -465,16 -604,22 -819,32 -2022,85 -2757,368 -287,110 -469,217 -695,398 z"
         id="path3843"
         inkscape:connector-curvature="0"
         style="fill:#fefefe" />
      <path
         class="fil0"
         d="m 2180,8291 c 81,-35 165,-92 241,-137 233,-138 488,-288 723,-417 769,-420 1806,-969 2653,-1139 178,-36 504,-81 682,-33 2,-13 -10,0 7,-13 -8,-10 8,-4 -17,-12 l -59,-12 c -87,-17 -177,-21 -266,-19 -118,2 -232,17 -345,38 -843,153 -1920,723 -2660,1131 -240,132 -486,279 -721,419 -41,24 -78,46 -119,71 -35,21 -81,53 -117,70 l -3,53 z"
         id="path3845"
         inkscape:connector-curvature="0"
         style="fill:#fefefe" />
      <path
         class="fil0"
         d="M 1217,6649 740,5952 C 639,5802 521,5638 422,5489 370,5410 317,5334 264,5258 l -633,-922 c -12,41 -1,44 18,72 l 2146,3220 c 19,29 297,452 312,465 5,-11 4,-32 5,-45 3,-80 7,-82 -23,-126 -27,-40 -52,-77 -79,-115 -54,-77 -104,-153 -158,-230 -107,-154 -210,-310 -318,-463 -108,-155 -209,-308 -318,-463 z"
         id="path3847"
         inkscape:connector-curvature="0"
         style="fill:#fefefe" />
      <path
         class="fil0"
         d="m 2184,8212 c 19,-4 209,-123 241,-142 373,-227 827,-484 1213,-687 635,-332 1473,-735 2179,-860 196,-35 509,-59 687,10 8,-16 14,-9 21,-30 -150,-25 -162,-39 -336,-48 -325,-17 -678,63 -975,161 -375,124 -737,288 -1068,456 -340,173 -669,347 -993,531 -48,28 -917,518 -966,554 l -2,56 z"
         id="path3849"
         inkscape:connector-curvature="0"
         style="fill:#fefefe" />
      <path
         class="fil0"
         d="m 2186,8128 c 35,-13 91,-51 125,-71 368,-209 723,-420 1099,-623 84,-46 166,-90 249,-135 165,-90 334,-176 503,-261 590,-293 1377,-651 2073,-603 99,7 192,22 287,46 9,2 12,4 20,3 l 13,-5 c -7,-11 1,-2 -7,-7 l -30,-8 c -14,-3 -25,-6 -38,-8 -83,-17 -165,-28 -250,-33 -341,-22 -675,42 -993,134 -900,261 -1981,880 -2813,1350 l -239,137 v 86 z"
         id="path3851"
         inkscape:connector-curvature="0"
         style="fill:#fefefe" />
      <path
         class="fil0"
         d="m 7255,6214 c 21,1 23,1 35,-10 l 71,-64 c 929,-810 2435,-1065 3640,-1161 110,-9 221,-16 331,-22 50,-3 317,-10 339,-19 1,-29 -4,-32 -4,-40 0,-2 -1,-2 -1,-4 -54,-3 -123,4 -177,6 -755,34 -1650,132 -2359,326 -567,155 -1032,338 -1491,658 -116,81 -291,227 -383,328 z"
         id="path3853"
         inkscape:connector-curvature="0"
         style="fill:#fefefe" />
      <path
         class="fil0"
         d="m 570,5438 c 208,296 412,599 618,898 104,150 203,299 308,448 11,15 600,881 622,899 -5,-39 7,-60 -13,-89 L 1837,7203 C 1631,6907 1430,6602 1223,6305 L 611,5410 c -53,-76 -896,-1319 -919,-1340 -24,77 -26,54 27,129 27,38 51,75 77,113 260,370 515,757 774,1126 z"
         id="path3855"
         inkscape:connector-curvature="0"
         style="fill:#fefefe" />
      <path
         class="fil0"
         d="m 2102,8243 c 1,-30 6,-64 6,-94 0,-28 -94,-156 -113,-183 L 571,5830 C 464,5670 361,5514 254,5354 c -10,-16 -619,-936 -634,-948 -8,20 53,99 67,118 28,39 51,79 78,120 l 467,719 c 123,198 264,406 384,604 l 154,243 c 26,39 51,79 77,121 101,165 206,318 308,482 249,403 523,800 786,1195 27,41 52,80 79,119 15,21 67,106 81,117 z"
         id="path3857"
         inkscape:connector-curvature="0"
         style="fill:#fefefe" />
      <path
         class="fil0"
         d="M 1842,7426 C 1788,7351 1736,7275 1684,7199 1427,6823 1161,6444 900,6070 689,5768 483,5467 272,5165 167,5014 62,4863 -43,4711 l -314,-450 c -14,56 -8,45 49,128 l 859,1252 c 101,150 215,307 312,456 101,155 211,301 312,456 95,145 214,310 313,456 97,144 220,315 312,456 51,78 103,151 156,228 23,33 142,213 159,225 -7,-29 4,-64 -2,-94 -3,-16 -27,-45 -38,-60 l -235,-339 z"
         id="path3859"
         inkscape:connector-curvature="0"
         style="fill:#fefefe" />
      <path
         class="fil0"
         d="m 4172,7271 c 74,-37 150,-68 227,-102 624,-280 1363,-497 2044,-587 -31,-17 -139,-15 -182,-15 -486,-1 -1084,216 -1523,400 -494,208 -818,381 -1282,622 -141,73 -275,152 -411,227 -70,38 -134,76 -202,115 l -197,115 1526,-774 z"
         id="path3861"
         inkscape:connector-curvature="0"
         style="fill:#fefefe" />
      <path
         class="fil0"
         d="m 2197,7755 c 80,-45 161,-92 243,-139 81,-45 164,-91 247,-137 457,-255 1087,-561 1553,-748 700,-280 1683,-584 2466,-391 60,15 39,-2 72,-6 -26,-22 -269,-54 -323,-60 -353,-37 -708,-2 -1051,63 -418,80 -797,209 -1171,349 -544,203 -1041,462 -1550,730 l -488,272 1,66 z"
         id="path3863"
         inkscape:connector-curvature="0"
         style="fill:#fefefe" />
      <path
         class="fil0"
         d="m 1349,6454 c 50,76 102,148 153,223 151,224 312,450 460,672 21,31 138,207 154,222 4,-43 -4,-48 -22,-75 L 1531,6657 C 1329,6358 1131,6061 931,5762 830,5612 732,5465 631,5315 529,5164 -255,3985 -270,3975 c -9,13 -28,56 -26,70 2,11 255,377 266,393 104,148 205,298 307,449 203,300 408,596 612,895 103,151 203,299 307,449 51,74 104,149 153,223 z"
         id="path3865"
         inkscape:connector-curvature="0"
         style="fill:#fefefe" />
      <path
         class="fil0"
         d="M 1522,6859 C 1312,6560 1113,6261 904,5961 696,5663 495,5361 287,5063 l -542,-788 c -13,-20 -25,-35 -38,-55 -6,-9 -12,-18 -19,-28 -4,-6 -5,-9 -10,-15 l -11,-11 c -10,19 -19,59 -10,75 11,19 28,39 40,57 178,261 365,523 545,785 103,150 207,300 313,451 209,298 415,603 624,900 106,150 209,299 311,449 24,35 613,889 627,898 -7,-45 10,-44 -17,-81 -87,-121 -182,-267 -270,-393 -105,-149 -204,-300 -308,-448 z"
         id="path3867"
         inkscape:connector-curvature="0"
         style="fill:#fefefe" />
      <path
         class="fil0"
         d="m 2193,7842 c 14,-14 97,-57 122,-72 413,-239 951,-529 1375,-727 826,-386 2014,-886 2960,-660 25,6 45,-1 61,-20 -188,-57 -498,-69 -706,-58 -790,43 -1652,376 -2353,704 -172,81 -348,165 -513,252 -305,160 -570,305 -866,473 -89,51 -85,34 -82,108 z"
         id="path3869"
         inkscape:connector-curvature="0"
         style="fill:#fefefe" />
      <path
         class="fil0"
         d="m 7696,6247 c 23,0 37,9 59,-3 l 141,-82 c 66,-37 131,-70 199,-101 69,-32 135,-63 208,-92 408,-161 725,-239 1188,-302 348,-47 776,-70 1128,-69 394,2 795,11 1188,3 2,-21 -18,-77 -24,-94 -394,12 -782,16 -1174,39 -374,22 -736,55 -1101,103 -534,69 -1167,205 -1633,475 -24,14 -164,97 -179,124 z"
         id="path3871"
         inkscape:connector-curvature="0"
         style="fill:#fefefe" />
      <path
         class="fil0"
         d="m 7555,6214 c 18,3 19,-1 29,-11 l 63,-56 c 30,-26 56,-47 86,-70 458,-355 1043,-505 1628,-586 771,-106 1580,-128 2372,-156 2,-25 -7,-50 -13,-73 -76,-4 -506,19 -615,24 -552,27 -1225,73 -1753,167 -362,65 -693,143 -1009,270 -153,62 -295,134 -426,216 -109,68 -274,186 -361,274 z"
         id="path3873"
         inkscape:connector-curvature="0"
         style="fill:#fefefe" />
      <path
         class="fil0"
         d="m 7650,6233 c 30,6 48,-19 97,-53 473,-326 1173,-472 1735,-549 741,-102 1527,-137 2292,-145 l -8,-41 c -91,9 -212,4 -306,6 -99,2 -198,4 -296,7 -578,19 -1138,50 -1709,129 -348,48 -690,117 -1006,218 -152,48 -304,109 -435,177 -76,39 -334,194 -363,251 z"
         id="path3875"
         inkscape:connector-curvature="0"
         style="fill:#fefefe" />
      <path
         class="fil0"
         d="m 2190,7927 c 23,-8 447,-253 491,-277 l 492,-268 c 329,-178 668,-341 1020,-500 618,-279 1427,-568 2137,-506 78,7 173,21 249,38 71,16 38,0 67,-5 -7,-10 8,-3 -18,-11 l -59,-12 c -26,-5 -52,-9 -79,-13 -58,-9 -113,-15 -172,-19 -122,-8 -246,-8 -367,1 -911,64 -2001,562 -2789,976 -166,87 -328,176 -489,263 -135,73 -353,194 -478,272 l -2,62 z"
         id="path3877"
         inkscape:connector-curvature="0"
         style="fill:#fefefe" />
      <path
         class="fil0"
         d="m 7317,6212 c 55,-15 48,-22 106,-73 29,-26 63,-53 95,-78 492,-379 1061,-597 1681,-746 740,-178 1711,-278 2480,-295 0,-23 -3,-34 -4,-56 -344,3 -955,56 -1303,101 -934,119 -1877,337 -2664,841 -66,43 -369,261 -392,307 z"
         id="path3879"
         inkscape:connector-curvature="0"
         style="fill:#fefefe" />
      <path
         class="fil0"
         d="m 2188,8017 c 30,-10 92,-52 124,-70 288,-163 559,-318 854,-481 135,-74 366,-201 499,-265 171,-83 335,-171 509,-251 540,-247 1124,-496 1744,-548 204,-17 414,-4 613,41 45,10 46,18 64,-5 -924,-237 -2171,347 -2947,722 -169,82 -330,171 -496,256 -89,45 -955,518 -963,541 z"
         id="path3881"
         inkscape:connector-curvature="0"
         style="fill:#fefefe" />
      <path
         class="fil0"
         d="m 7380,6206 c 49,4 37,-2 64,-25 15,-12 31,-26 46,-39 468,-411 1148,-649 1756,-786 379,-85 774,-140 1173,-182 207,-22 418,-39 626,-52 75,-5 626,-27 644,-35 0,-41 -2,-43 -15,-46 -5,-1 -7,-1 -12,-1 l -304,14 c -690,35 -1461,116 -2120,273 -626,149 -1169,353 -1671,723 -35,26 -65,50 -97,76 -26,21 -72,57 -89,79 z"
         id="path3883"
         inkscape:connector-curvature="0"
         style="fill:#fefefe" />
      <path
         class="fil0"
         d="m 7451,6207 c 33,2 42,-14 59,-28 119,-102 188,-158 330,-248 430,-273 931,-431 1450,-534 693,-137 1388,-184 2094,-219 44,-2 298,-9 316,-14 0,-19 0,-35 -9,-51 -94,-5 -224,8 -321,13 -664,31 -1460,104 -2090,245 -582,130 -1181,330 -1649,686 -19,15 -167,127 -181,151 z"
         id="path3885"
         inkscape:connector-curvature="0"
         style="fill:#fefefe" />
      <path
         class="fil0"
         d="m 7506,6210 c 30,3 36,-14 54,-31 l 132,-109 c 453,-357 1053,-533 1630,-632 674,-116 1700,-184 2393,-197 -4,-22 -5,-31 -10,-54 -31,-5 -118,3 -154,4 -737,31 -1513,80 -2230,220 -363,71 -699,166 -1012,296 -153,64 -301,141 -432,223 -62,39 -327,221 -371,279 z"
         id="path3887"
         inkscape:connector-curvature="0"
         style="fill:#fefefe" />
      <path
         class="fil0"
         d="M 1421,6289 C 1246,6017 1076,5725 904,5455 869,5401 835,5343 800,5289 765,5234 734,5179 699,5124 L 489,4794 c -43,-66 -615,-939 -649,-970 -17,5 -29,15 -40,31 30,54 170,260 215,327 l 1185,1787 c 37,56 73,107 108,162 52,80 181,265 216,326 -6,-19 -39,-67 -51,-85 -17,-27 -34,-56 -52,-83 z"
         id="path3889"
         inkscape:connector-curvature="0"
         style="fill:#fefefe" />
    </g>
  </g>
</svg>
